<?xml version="1.0" encoding="UTF-8"?>
<!DOCTYPE svg PUBLIC "-//W3C//DTD SVG 1.1//EN" "http://www.w3.org/Graphics/SVG/1.1/DTD/svg11.dtd">
<!-- Creator: CorelDRAW X7 -->
<svg xmlns="http://www.w3.org/2000/svg" xml:space="preserve" width="100mm" height="45mm" version="1.1" style="shape-rendering:geometricPrecision; text-rendering:geometricPrecision; image-rendering:optimizeQuality; fill-rule:evenodd; clip-rule:evenodd"
viewBox="0 0 10000 4500"
 xmlns:xlink="http://www.w3.org/1999/xlink">
 <defs>
  <style type="text/css">
   <![CDATA[
    .fil3 {fill:#FEFEFE}
    .fil2 {fill:#E51664}
    .fil4 {fill:#FBE900}
    .fil5 {fill:#EDEEED}
    .fil0 {fill:#4EA9DF}
    .fil1 {fill:#1B7194}
    .fil6 {fill:#5F5D5D;fill-rule:nonzero}
   ]]>
  </style>
 </defs>
 <g id="Layer_x0020_1">
  <metadata id="CorelCorpID_0Corel-Layer"/>
  <g id="_2533653509520">
   <polygon class="fil0" points="4429,445 3915,2970 8980,2970 9500,438 4593,438 "/>
   <polygon class="fil1" points="3915,2970 4429,445 4265,452 1638,1657 3433,2970 "/>
   <polygon class="fil2" points="500,933 3968,2394 3865,2970 804,2970 "/>
   <path class="fil3" d="M1986 2970l36 0 0 -633 -36 0 0 633zm568 0l0 0 37 0 0 -834 -37 0 0 834zm601 0l0 0 36 0 0 -1048 -36 0 0 1048z"/>
   <polygon class="fil4" points="3749,2970 4082,2970 4593,438 4265,452 "/>
   <path class="fil5" d="M5021 2970l77 -2041 3660 0 -709 2041 -687 -1229 -5 0 -602 532 900 0 6 19 -1128 683 -6 4 -6 -4 -875 -675 -625 670zm1589 -676l0 0 -937 0 855 659 1089 -659 -891 0 -4 0 -100 529 -112 0 100 -529zm-938 -21l0 0 931 0 -378 -532 -57 0 -496 532zm579 -532l0 0 367 515 97 -515 -464 0zm576 0l0 0 -100 528 597 -528 -497 0zm23 -121l0 0 444 0 -379 -679 -634 679 457 0 89 -469 111 0 -88 469z"/>
   <polygon class="fil6" points="804,4044 804,3131 897,3131 897,3522 1162,3522 1162,3131 1256,3131 1256,4044 1162,4044 1162,3610 897,3610 897,4044 "/>
   <polygon id="1" class="fil6" points="1419,4044 1419,3131 1514,3131 1514,3619 1784,3131 1877,3131 1696,3453 1907,4044 1806,4044 1634,3550 1512,3770 1512,4044 "/>
   <path id="2" class="fil6" d="M2074 3961l95 0c66,0 113,-14 143,-42 31,-28 46,-72 46,-132 0,-62 -16,-107 -48,-136 -32,-29 -81,-44 -149,-44l-87 0 0 354zm0 -434l87 0c59,0 104,-13 134,-41 30,-28 45,-70 45,-125 0,-54 -14,-92 -43,-115 -29,-23 -78,-34 -148,-34l-75 0 0 315zm-93 517l0 -913 166 0c67,0 116,5 147,15 30,10 57,27 81,52 17,17 31,39 40,67 10,27 15,57 15,90 0,52 -11,95 -33,129 -22,34 -54,60 -98,78 51,18 89,46 114,83 24,38 37,85 37,144 0,86 -24,150 -72,192 -48,42 -120,63 -218,63l-179 0z"/>
   <path id="3" class="fil6" d="M2675 3549l80 0c61,0 107,-14 138,-42 32,-28 47,-69 47,-124 0,-56 -15,-98 -46,-126 -31,-28 -78,-42 -139,-42l-80 0 0 334zm-94 495l0 -913 153 0c99,0 173,20 222,61 48,41 73,104 73,187 0,83 -25,145 -73,186 -49,41 -123,61 -222,61l-59 0 0 418 -94 0z"/>
   <path id="4" class="fil6" d="M3236 3530l79 0c63,0 110,-13 142,-40 31,-26 47,-66 47,-119 0,-54 -16,-94 -47,-120 -31,-26 -78,-39 -142,-39l-79 0 0 318zm-94 514l0 -913 167 0c99,0 173,19 221,59 49,40 74,100 74,181 0,55 -13,102 -38,140 -24,37 -60,63 -107,78l150 455 -101 0 -138 -434c-25,0 -45,1 -59,1 -14,1 -27,1 -39,1l-36 0 0 432 -94 0z"/>
   <polygon id="5" class="fil6" points="3734,4044 3734,3131 4144,3131 4144,3215 3827,3215 3827,3530 4060,3530 4060,3613 3827,3613 3827,3960 4156,3960 4156,4044 "/>
   <polygon id="6" class="fil6" points="4260,4044 4260,3131 4643,3131 4643,3215 4354,3215 4354,3530 4576,3530 4576,3613 4354,3613 4354,4044 "/>
   <path id="7" class="fil6" d="M4975 4062c-83,0 -146,-40 -188,-121 -43,-80 -64,-198 -64,-354 0,-156 21,-275 64,-354 42,-80 105,-120 188,-120 83,0 145,40 188,120 43,80 64,198 64,354 0,156 -21,274 -64,354 -43,81 -105,121 -188,121zm0 -864c-53,0 -92,29 -116,89 -25,59 -37,152 -37,279 0,145 12,250 36,314 24,64 63,96 117,96 53,0 91,-31 116,-93 24,-61 37,-160 37,-296 0,-135 -13,-234 -37,-296 -25,-62 -63,-93 -116,-93z"/>
   <path id="8" class="fil6" d="M5455 3530l80 0c62,0 109,-13 141,-40 31,-26 47,-66 47,-119 0,-54 -16,-94 -47,-120 -31,-26 -78,-39 -141,-39l-80 0 0 318zm-94 514l0 -913 167 0c99,0 173,19 222,59 48,40 73,100 73,181 0,55 -13,102 -37,140 -25,37 -61,63 -108,78l150 455 -101 0 -138 -434c-25,0 -45,1 -59,1 -14,1 -27,1 -39,1l-36 0 0 432 -94 0z"/>
   <path id="9" class="fil6" d="M5951 4044l0 -913 146 0 110 475c11,46 20,92 28,138 8,46 16,93 23,140 5,-43 12,-88 21,-134 9,-46 19,-94 30,-143l111 -476 147 0 0 913 -84 0 0 -848 -197 848 -57 0 -196 -848 0 848 -82 0z"/>
   <path id="10" class="fil6" d="M6831 3689l191 0 -96 -478 -95 478zm-165 355l198 -913 129 0 200 913 -99 0 -53 -269 -230 0 -53 269 -92 0z"/>
   <path id="11" class="fil6" d="M7440 3413c-12,-35 -24,-69 -36,-104 -12,-36 -23,-71 -33,-107l0 842 -82 0 0 -913 136 0 189 518c14,41 28,80 40,118 12,38 23,74 34,109 -3,-27 -5,-55 -6,-83 -1,-29 -2,-68 -2,-116l0 -546 82 0 0 913 -92 0 -230 -631z"/>
   <path id="12" class="fil6" d="M8028 3212l0 746c14,2 25,2 32,3 7,0 13,1 18,1 87,0 147,-28 182,-83 35,-55 52,-154 52,-296 0,-141 -17,-238 -52,-293 -34,-54 -95,-82 -181,-82 -5,0 -12,1 -19,1 -7,0 -18,1 -32,3zm-95 832l0 -913 169 0c107,0 184,36 231,108 48,72 73,187 73,347 0,161 -25,278 -73,350 -47,72 -124,108 -231,108l-169 0z"/>
   <path id="13" class="fil6" d="M8618 3689l191 0 -96 -478 -95 478zm-165 355l198 -913 129 0 200 913 -99 0 -53 -269 -230 0 -53 269 -92 0z"/>
  </g>
 </g>
</svg>
