<?xml version="1.0" encoding="UTF-8"?>
<!DOCTYPE svg PUBLIC "-//W3C//DTD SVG 1.1//EN" "http://www.w3.org/Graphics/SVG/1.1/DTD/svg11.dtd">
<!-- Creator: CorelDRAW X7 -->
<svg xmlns="http://www.w3.org/2000/svg" xml:space="preserve" width="80mm" height="35mm" version="1.1" style="shape-rendering:geometricPrecision; text-rendering:geometricPrecision; image-rendering:optimizeQuality; fill-rule:evenodd; clip-rule:evenodd"
viewBox="0 0 8000 3500"
 xmlns:xlink="http://www.w3.org/1999/xlink">
 <defs>
  <style type="text/css">
   <![CDATA[
    .fil0 {fill:#E8FFE8}
   ]]>
  </style>
 </defs>
 <g id="Layer_x0020_1">
  <metadata id="CorelCorpID_0Corel-Layer"/>
  <g id="_2744405601952">
   <path class="fil0" d="M3202 2315l426 -2111 -107 5 -106 5 -431 2101 67 0 151 0zm-713 -786l576 243 320 -1557 -1923 882 997 420 0 -77 30 0 0 89zm0 63l0 575 0 148 202 0 263 0 100 -485 -565 -238zm-30 -12l-2209 -931 248 1666 986 0 0 -529 31 0 0 529 443 0 0 -536 0 -160 30 0 0 182 0 514 471 0 0 -170 0 -565zm3081 -392l370 0 -316 -566 -528 566 381 0 74 -391 93 0 -74 391zm-19 101l-84 441 499 -441 -415 0zm-480 0l305 430 82 -430 -387 0zm-483 444l776 0 -315 -444 -47 0 -414 444zm714 567l908 -549 -743 0 -4 0 -83 441 -93 0 83 -441 -781 0 713 549zm944 -551l-934 566 1258 0 -573 -1026 -4 0 -502 444 751 0 4 16zm-1680 7l-521 559 1246 0 -725 -559zm-878 -1553l-426 2112 783 0 64 -1703 3053 0 -592 1703 776 0 434 -2112 -4092 0z"/>
   <path class="fil0" d="M7038 3282l170 -781 110 0 171 781 -84 0 -46 -230 -197 0 -45 230 -79 0zm142 -304l163 0 -82 -408 -81 408zm-586 304l0 -781 145 0c91,0 157,31 197,92 42,62 62,161 62,297 0,138 -20,238 -62,300 -40,61 -106,92 -197,92l-145 0zm81 -712l0 639c12,1 21,1 27,2 6,0 12,0 16,0 74,0 126,-23 156,-70 29,-47 44,-132 44,-253 0,-121 -15,-204 -44,-251 -30,-46 -81,-70 -155,-70 -5,0 -10,0 -16,1 -6,0 -16,1 -28,2zm-502 172c-11,-29 -21,-59 -31,-89 -10,-30 -20,-60 -29,-91l0 720 -70 0 0 -781 117 0 161 443c12,35 24,69 34,101 11,32 21,63 29,94 -2,-24 -3,-47 -4,-72 -1,-25 -2,-58 -2,-99l0 -467 70 0 0 781 -78 0 -197 -540zm-663 540l170 -781 110 0 171 781 -85 0 -45 -230 -197 0 -45 230 -79 0zm142 -304l163 0 -82 -408 -81 408zm-752 304l0 -781 124 0 94 406c9,39 17,79 24,118 7,40 14,80 20,120 4,-37 11,-75 18,-114 7,-40 16,-81 26,-123l95 -407 125 0 0 781 -71 0 0 -726 -169 726 -49 0 -167 -726 0 726 -70 0zm-505 0l0 -781 143 0c84,0 147,17 189,51 42,34 63,85 63,154 0,48 -11,88 -32,120 -21,32 -52,54 -92,67l128 389 -86 0 -118 -372c-22,1 -38,2 -50,2 -12,0 -23,1 -34,1l-31 0 0 369 -80 0zm80 -440l68 0c54,0 94,-11 121,-34 27,-22 40,-56 40,-102 0,-46 -13,-80 -40,-102 -26,-23 -67,-34 -121,-34l-68 0 0 272zm-410 -284c-45,0 -78,26 -99,76 -21,51 -32,130 -32,239 0,124 10,214 31,268 20,55 54,83 100,83 45,0 78,-27 99,-79 21,-53 31,-138 31,-254 0,-115 -10,-200 -31,-253 -21,-53 -54,-80 -99,-80zm0 739c-71,0 -125,-34 -161,-103 -36,-69 -54,-170 -54,-303 0,-134 18,-235 54,-303 36,-68 90,-102 161,-102 71,0 124,34 161,102 36,69 55,170 55,303 0,133 -19,234 -55,303 -37,69 -90,103 -161,103zm-611 -15l0 -781 327 0 0 72 -247 0 0 269 190 0 0 72 -190 0 0 368 -80 0zm-451 0l0 -781 352 0 0 72 -272 0 0 269 199 0 0 72 -199 0 0 296 281 0 0 72 -361 0zm-505 0l0 -781 142 0c85,0 148,17 190,51 41,34 62,85 62,154 0,48 -10,88 -31,120 -22,32 -52,54 -92,67l128 389 -87 0 -118 -372c-21,1 -38,2 -50,2 -12,0 -23,1 -33,1l-31 0 0 369 -80 0zm80 -440l68 0c53,0 94,-11 121,-34 26,-22 40,-56 40,-102 0,-46 -13,-80 -40,-102 -27,-23 -67,-34 -121,-34l-68 0 0 272zm-560 440l0 -781 131 0c84,0 148,18 189,53 42,35 63,88 63,159 0,71 -21,124 -63,159 -41,35 -105,52 -189,52l-51 0 0 358 -80 0zm80 -423l68 0c53,0 92,-12 119,-36 27,-24 40,-59 40,-106 0,-48 -13,-84 -40,-108 -26,-24 -66,-36 -119,-36l-68 0 0 286zm-593 423l0 -781 142 0c57,0 99,4 125,13 26,8 50,23 70,44 15,15 26,34 34,57 8,24 12,49 12,77 0,45 -9,82 -27,111 -19,29 -47,52 -84,67 44,15 76,39 97,71 21,32 32,73 32,123 0,74 -21,128 -62,164 -40,36 -103,54 -186,54l-153 0zm80 -442l74 0c51,0 89,-12 114,-36 26,-24 39,-59 39,-106 0,-46 -13,-79 -37,-99 -24,-19 -66,-29 -126,-29l-64 0 0 270zm0 371l80 0c57,0 98,-12 123,-36 26,-24 39,-62 39,-113 0,-53 -14,-91 -41,-116 -27,-25 -69,-38 -127,-38l-74 0 0 303zm-561 71l0 -781 81 0 0 417 231 -417 80 0 -155 276 180 505 -86 0 -146 -422 -105 188 0 234 -80 0zm-526 0l0 -781 80 0 0 335 227 0 0 -335 80 0 0 781 -80 0 0 -372 -227 0 0 372 -80 0z"/>
  </g>
 </g>
</svg>
